# xmcd
#
# Track frame offsets: 
#        150
#        19796
#        37464
#        58212
#        73319
#        92430
#        110391
#        124055
#        162168
#        185210
#        200292
#        224633
#        249510
#        267605
#        280280
#        306604
#        327915
#
# Disc length: 4780 seconds
#
# Revision: 0
# Processed by: cddbd v1.5.2PL0 Copyright (c) Steve Scherf et al.
# Submitted via: ExactAudioCopy v1.3
#
DISCID=1812aa11
DTITLE=Various Artist - Akella Presents - vol. 159 - Blues-Rock  CD2
DYEAR=2018
DGENRE=Blues
TTITLE0=The Donnelly Connection - What I'm Looking For
TTITLE1=Hadden Sayers - Hit The Road
TTITLE2=Bryce Janey - Time Doesn't Wait
TTITLE3=The Paul Nelson Band - Out Of Time
TTITLE4=The Alabama Lovesnakes - I'm Gonna Move To The Outskirts Of To
TTITLE4=wn
TTITLE5=Rebel Heart - Marahoocie
TTITLE6=Sideburn - Never Kill The Chicken
TTITLE7=The Paul DesLauriers Band - If I Still Had You
TTITLE8=Vdelly - Condescending lies
TTITLE9=The Blackwater Fever - Tell Me Now
TTITLE10=Bob Walsh and Guy Belanger - My Baby Don't Tolerate
TTITLE11=Van Galen Band - Deeper
TTITLE12=Colin James - Still A Fool
TTITLE13=Pat McManus - Got the Right
TTITLE14=Jay Jesse Johnson - Spell Of Winter
TTITLE15=The Associates - Cold Wind Blowing
TTITLE16=Blindside Blues Band - 79 Cent Blues
EXTD=
EXTT0=
EXTT1=
EXTT2=
EXTT3=
EXTT4=
EXTT5=
EXTT6=
EXTT7=
EXTT8=
EXTT9=
EXTT10=
EXTT11=
EXTT12=
EXTT13=
EXTT14=
EXTT15=
EXTT16=
PLAYORDER=
